# xmcd
#
# Track frame offsets:
#	150
#	7745
#	28169
#	37925
#	49280
#	59387
#	69772
#	79934
#	91808
#	103339
#	112825
#	124550
#	136279
#	146186
#	159371
#	170920
#	184101
#	196974
#	208627
#	220777
#	234744
#	245789
#	260151
#	273436
#
# Disc length: 3803 seconds
#
# Revision: 6
# Processed by: cddbd v1.5.2PL0 Copyright (c) Steve Scherf et al.
# Submitted via: EasyCDDAExtractor 12.0.7.1
#
DISCID=5d0ed918
DTITLE=Conway Twitty - The Conway Twitty Collection [cd1]
DYEAR=1994
DGENRE=Country
TTITLE0=Cry Baby Heart
TTITLE1=Maybellene
TTITLE2=Rock House
TTITLE3=I Need Your Lovin
TTITLE4=It's Only Make Believe
TTITLE5=The Story Of My Love
TTITLE6=Lonely Blue Boy
TTITLE7=What Am I Living For
TTITLE8=Unchained Melody
TTITLE9=The Next Kiss (Is The Last Goodbye)
TTITLE10=Such A Night
TTITLE11=Walk Me To The Door
TTITLE12=Funny (But I'm Not Laughing)
TTITLE13=Together Forever
TTITLE14=Guess My Eyes Were Bigger Than My Heart
TTITLE15=The Image Of Me
TTITLE16=Next In Line
TTITLE17=Darling, You Know I Wouldn't Lie
TTITLE18=To See My Angel Cry
TTITLE19=That's When She Started To Stop Loving You
TTITLE20=Hello Darlin
TTITLE21=Fifteen Years Ago
TTITLE22=How Much More Can She Stand
TTITLE23=After The Fire Is Gone (With Loretta Lynn)
EXTD=
EXTT0=
EXTT1=
EXTT2=
EXTT3=
EXTT4=
EXTT5=
EXTT6=
EXTT7=
EXTT8=
EXTT9=
EXTT10=
EXTT11=
EXTT12=
EXTT13=
EXTT14=
EXTT15=
EXTT16=
EXTT17=
EXTT18=
EXTT19=
EXTT20=
EXTT21=
EXTT22=
EXTT23=
PLAYORDER=
